<svg  version="1.1" viewBox="0 0 20 20" xmlns="http://www.w3.org/2000/svg"
aria-labelledby="add" role="presentation" preserveAspectRatio="xMinYMin meet">
  <title id="add" lang="en">add icon</title>
<path d="M14.613 12c0 .23-.188.419-.419.419H10.42v3.774c0 .23-.189.42-.42.42s-.419-.189-.419-.42v-3.774H5.806c-.23 0-.419-.189-.419-.419s.189-.419.419-.419h3.775V7.806c0-.23.189-.419.419-.419s.42.189.42.419v3.775h3.774C14.425 11.581 14.613 11.77 14.613 12M17.969 12c0 4.401-3.567 7.969-7.969 7.969c-4.402 0-7.969-3.567-7.969-7.969c0-4.402 3.567-7.969 7.969-7.969C14.401 4.031 17.969 7.598 17.969 12M17.13 12c0-3.932-3.198-7.13-7.13-7.13S2.87 8.068 2.87 12c0 3.933 3.198 7.13 7.13 7.13S17.13 15.933 17.13 12"></path>
</svg>
