<svg  version="1.1" viewBox="0 0 20 20" xmlns="http://www.w3.org/2000/svg"
aria-labelledby="close" role="presentation" preserveAspectRatio="xMinYMin meet">
  <title
    id="close"
    lang="en"
  >close icon</title>
<path d="M11.5047 10.15L16.1035 5.551c.1265-.1266.1963-.2955.1965-.4756c0-.1802-.0698-.3493-.1965-.4757L15.7005 4.1968c-.1267-.1269-.2956-.1964-.4759-.1964c-.18 0-.3489.0695-.4756.1964L10.1502 8.7955L5.5512 4.1968c-.1265-.1269-.2955-.1964-.4757-.1964c-.18 0-.349.0695-.4755.1964L4.1968 4.5997c-.2624.2624-.2624.6892 0 .9513L8.7957 10.15L4.1968 14.7488c-.1266.1268-.1963.2957-.1963.4758c0 .1801.0697.349.1963.4757l.4031.4029c.1265.1268.2956.1964.4755.1964c.1802 0 .3492-.0696.4757-.1964l4.599-4.5988l4.5988 4.5988c.1267.1268.2956.1964.4756.1964h.0002c.1801 0 .349-.0696.4757-.1964l.403-.4029c.1265-.1266.1963-.2956.1963-.4757c0-.1801-.0698-.349-.1963-.4757L11.5047 10.15z"/>
</svg>
