<svg  version="1.1" viewBox="0 0 20 20" xmlns="http://www.w3.org/2000/svg"
aria-labelledby="delete" role="presentation" preserveAspectRatio="xMinYMin meet">
  <title id="delete" lang="en">delete icon</title>
<path d="M 15.8623 5.1776 h -3.7171 V 3.9659 c 0 -0.2041 -0.1677 -0.3718 -0.3726 -0.3718 H 8.4273 c -0.2041 0 -0.3718 0.1677 -0.3718 0.3718 v 1.2118 h -3.7179 c -0.2041 0 -0.3718 0.1661 -0.3718 0.3718 c 0 0.2041 0.1677 0.3718 0.3718 0.3718 h 1.2231 v 10.3129 c 0 0.2041 0.1677 0.3718 0.3718 0.3718 h 8.3349 c 0.2057 0 0.3718 -0.1677 0.3718 -0.3718 V 5.9212 h 1.2239 c 0.2041 0 0.3718 -0.1677 0.3718 -0.3718 C 16.2341 5.3429 16.0665 5.1776 15.8623 5.1776 M 8.7991 4.3377 h 2.6033 v 0.7436 H 8.7991 V 4.3377 z M 13.8957 15.8623 H 6.3043 V 5.9212 h 7.5913 V 15.8623 z M 12.1453 7.9179 v 5.9486 c 0 0.2041 -0.1677 0.3718 -0.3726 0.3718 s -0.371 -0.1677 -0.371 -0.3718 V 7.9179 c 0 -0.2057 0.1661 -0.3718 0.371 -0.3718 S 12.1453 7.7113 12.1453 7.9179 M 8.7991 7.9179 v 5.9486 c 0 0.2041 -0.1677 0.3718 -0.3718 0.3718 s -0.3718 -0.1677 -0.3718 -0.3718 V 7.9179 c 0 -0.2057 0.1677 -0.3718 0.3718 -0.3718 S 8.7991 7.7113 8.7991 7.9179"></path>
</svg>
