<svg  version="1.1" viewBox="0 0 20 20" xmlns="http://www.w3.org/2000/svg"
aria-labelledby="add" role="presentation" preserveAspectRatio="xMinYMin meet">
  <title id="add" lang="en">search icon</title>
<path d="M 12.6875 14.0628 l -2.8266 -2.8259 c 0.4725 -0.7553 0.7084 -1.6156 0.707 -2.4738 C 10.5623 6.234 8.5393 4.225 6.0088 4.225 C 3.3705 4.225 1.3874 6.3082 1.4 8.8002 c 0.0147 2.5039 2.0356 4.5843 4.6046 4.5843 c 0.8687 0 1.6919 -0.2429 2.408 -0.6895 l 2.8224 2.8182 c 0.1169 0.1162 0.301 0.1162 0.4172 0 l 1.0353 -1.0346 C 12.8044 14.3638 12.8044 14.1776 12.6875 14.0628 M 6.0046 12.793 c -2.2386 0 -4.0012 -1.8151 -4.0131 -3.997 c -0.0119 -2.1588 1.7066 -3.9802 4.018 -3.9802 c 2.2379 0 3.9375 1.7451 3.948 3.9368 C 9.9694 11.0836 8.1347 12.793 6.0046 12.793 M 11.4443 14.8867 l -2.5459 -2.5445 c 0.0917 -0.077 0.5047 -0.4865 0.6132 -0.6188 l 2.5494 2.5473 L 11.4443 14.8867 z"></path>
</svg>
